<svg id="visual" viewBox="0 0 960 300" width="960" height="300" xmlns="http://www.w3.org/2000/svg" xmlns:xlink="http://www.w3.org/1999/xlink" version="1.1"><path d="M0 0L46 7L91 10L137 10L183 7L229 28L274 34L320 13L366 43L411 40L457 25L503 37L549 37L594 22L640 52L686 16L731 16L777 0L823 0L869 0L914 52L960 22L960 0L914 0L869 0L823 0L777 0L731 0L686 0L640 0L594 0L549 0L503 0L457 0L411 0L366 0L320 0L274 0L229 0L183 0L137 0L91 0L46 0L0 0Z" fill="#5865f2"></path><path d="M0 0L46 31L91 22L137 13L183 7L229 55L274 43L320 22L366 64L411 64L457 46L503 64L549 49L594 28L640 73L686 19L731 16L777 31L823 4L869 10L914 58L960 46L960 20L914 50L869 0L823 0L777 0L731 14L686 14L640 50L594 20L549 35L503 35L457 23L411 38L366 41L320 11L274 32L229 26L183 5L137 8L91 8L46 5L0 0Z" fill="#4563e2"></path><path d="M0 28L46 46L91 25L137 43L183 10L229 64L274 64L320 40L366 85L411 73L457 49L503 64L549 61L594 46L640 73L686 19L731 40L777 58L823 19L869 40L914 88L960 55L960 44L914 56L869 8L823 2L777 29L731 14L686 17L640 71L594 26L549 47L503 62L457 44L411 62L366 62L320 20L274 41L229 53L183 5L137 11L91 20L46 29L0 0Z" fill="#3560d1"></path><path d="M0 64L46 46L91 70L137 46L183 31L229 103L274 97L320 70L366 88L411 88L457 70L503 100L549 67L594 55L640 76L686 40L731 55L777 64L823 46L869 40L914 88L960 61L960 53L914 86L869 38L823 17L777 56L731 38L686 17L640 71L594 44L549 59L503 62L457 47L411 71L366 83L320 38L274 62L229 62L183 8L137 41L91 23L46 44L0 26Z" fill="#285cc0"></path><path d="M0 82L46 49L91 79L137 61L183 49L229 118L274 112L320 73L366 112L411 94L457 79L503 112L549 79L594 67L640 91L686 61L731 58L777 67L823 61L869 43L914 88L960 73L960 59L914 86L869 38L823 44L777 62L731 53L686 38L640 74L594 53L549 65L503 98L457 68L411 86L366 86L320 68L274 95L229 101L183 29L137 44L91 68L46 44L0 62Z" fill="#1e58ae"></path><path d="M0 97L46 61L91 79L137 73L183 73L229 136L274 115L320 79L366 115L411 118L457 106L503 133L549 94L594 85L640 112L686 73L731 79L777 79L823 85L869 70L914 94L960 82L960 71L914 86L869 41L823 59L777 65L731 56L686 59L640 89L594 65L549 77L503 110L457 77L411 92L366 110L320 71L274 110L229 116L183 47L137 59L91 77L46 47L0 80Z" fill="#1b539c"></path><path d="M0 136L46 190L91 130L137 109L183 97L229 154L274 181L320 130L366 175L411 205L457 151L503 157L549 142L594 220L640 166L686 73L731 172L777 106L823 136L869 121L914 115L960 181L960 80L914 92L869 68L823 83L777 77L731 77L686 71L640 110L594 83L549 92L503 131L457 104L411 116L366 113L320 77L274 113L229 134L183 71L137 71L91 77L46 59L0 95Z" fill="#1c4d8a"></path><path d="M0 175L46 259L91 157L137 175L183 136L229 160L274 199L320 202L366 214L411 211L457 205L503 190L549 217L594 244L640 190L686 121L731 208L777 154L823 145L869 193L914 115L960 190L960 179L914 113L869 119L823 134L777 104L731 170L686 71L640 164L594 218L549 140L503 155L457 149L411 203L366 173L320 128L274 179L229 152L183 95L137 107L91 128L46 188L0 134Z" fill="#204878"></path><path d="M0 211L46 277L91 160L137 202L183 166L229 190L274 205L320 208L366 226L411 244L457 214L503 226L549 217L594 259L640 211L686 169L731 247L777 199L823 154L869 229L914 157L960 226L960 188L914 113L869 191L823 143L777 152L731 206L686 119L640 188L594 242L549 215L503 188L457 203L411 209L366 212L320 200L274 197L229 158L183 134L137 173L91 155L46 257L0 173Z" fill="#244266"></path><path d="M0 235L46 277L91 187L137 223L183 199L229 190L274 235L320 232L366 226L411 277L457 235L503 250L549 226L594 274L640 217L686 190L731 265L777 205L823 166L869 244L914 172L960 256L960 224L914 155L869 227L823 152L777 197L731 245L686 167L640 209L594 257L549 215L503 224L457 212L411 242L366 224L320 206L274 203L229 188L183 164L137 200L91 158L46 275L0 209Z" fill="#283c55"></path><path d="M0 286L46 301L91 298L137 289L183 292L229 289L274 298L320 289L366 286L411 292L457 283L503 289L549 286L594 277L640 277L686 295L731 280L777 292L823 277L869 283L914 292L960 277L960 254L914 170L869 242L823 164L777 203L731 263L686 188L640 215L594 272L549 224L503 248L457 233L411 275L366 224L320 230L274 233L229 188L183 197L137 221L91 185L46 275L0 233Z" fill="#2b3544"></path><path d="M0 301L46 301L91 301L137 301L183 301L229 301L274 301L320 301L366 301L411 301L457 301L503 301L549 301L594 301L640 301L686 301L731 301L777 301L823 301L869 301L914 301L960 301L960 275L914 290L869 281L823 275L777 290L731 278L686 293L640 275L594 275L549 284L503 287L457 281L411 290L366 284L320 287L274 296L229 287L183 290L137 287L91 296L46 299L0 284Z" fill="#2c2f33"></path></svg>