<svg id="visual" viewBox="0 0 960 300" width="960" height="300" xmlns="http://www.w3.org/2000/svg" xmlns:xlink="http://www.w3.org/1999/xlink" version="1.1"><path d="M0 67L7 58C14 49 28 31 41.8 39C55.7 47 69.3 81 83.2 84C97 87 111 59 125 43C139 27 153 23 167 33C181 43 195 67 208.8 73C222.7 79 236.3 67 250.2 56.5C264 46 278 37 292 35C306 33 320 38 334 47.5C348 57 362 71 375.8 63.8C389.7 56.7 403.3 28.3 417.2 29.8C431 31.3 445 62.7 459 70.8C473 79 487 64 501 55.5C515 47 529 45 542.8 50C556.7 55 570.3 67 584.2 68.5C598 70 612 61 626 55.5C640 50 654 48 668 44.5C682 41 696 36 709.8 41C723.7 46 737.3 61 751.2 66C765 71 779 66 793 75.5C807 85 821 109 835 114.5C849 120 863 107 876.8 98.5C890.7 90 904.3 86 918.2 72.5C932 59 946 36 953 24.5L960 13L960 0L953 0C946 0 932 0 918.2 0C904.3 0 890.7 0 876.8 0C863 0 849 0 835 0C821 0 807 0 793 0C779 0 765 0 751.2 0C737.3 0 723.7 0 709.8 0C696 0 682 0 668 0C654 0 640 0 626 0C612 0 598 0 584.2 0C570.3 0 556.7 0 542.8 0C529 0 515 0 501 0C487 0 473 0 459 0C445 0 431 0 417.2 0C403.3 0 389.7 0 375.8 0C362 0 348 0 334 0C320 0 306 0 292 0C278 0 264 0 250.2 0C236.3 0 222.7 0 208.8 0C195 0 181 0 167 0C153 0 139 0 125 0C111 0 97 0 83.2 0C69.3 0 55.7 0 41.8 0C28 0 14 0 7 0L0 0Z" fill="#2c2f33"></path><path d="M0 70L7 61.5C14 53 28 36 41.8 45C55.7 54 69.3 89 83.2 95C97 101 111 78 125 63C139 48 153 41 167 48.5C181 56 195 78 208.8 83C222.7 88 236.3 76 250.2 68C264 60 278 56 292 59C306 62 320 72 334 83.5C348 95 362 108 375.8 96.5C389.7 85 403.3 49 417.2 48C431 47 445 81 459 92.5C473 104 487 93 501 87.5C515 82 529 82 542.8 89.5C556.7 97 570.3 112 584.2 110.5C598 109 612 91 626 80.5C640 70 654 67 668 64.5C682 62 696 60 709.8 63.5C723.7 67 737.3 76 751.2 77.5C765 79 779 73 793 85C807 97 821 127 835 135C849 143 863 129 876.8 123C890.7 117 904.3 119 918.2 102.5C932 86 946 51 953 33.5L960 16L960 11L953 22.5C946 34 932 57 918.2 70.5C904.3 84 890.7 88 876.8 96.5C863 105 849 118 835 112.5C821 107 807 83 793 73.5C779 64 765 69 751.2 64C737.3 59 723.7 44 709.8 39C696 34 682 39 668 42.5C654 46 640 48 626 53.5C612 59 598 68 584.2 66.5C570.3 65 556.7 53 542.8 48C529 43 515 45 501 53.5C487 62 473 77 459 69.2C445 61.3 431 30.7 417.2 29.2C403.3 27.7 389.7 55.3 375.8 62.2C362 69 348 55 334 45.5C320 36 306 31 292 33C278 35 264 44 250.2 54.5C236.3 65 222.7 77 208.8 71C195 65 181 41 167 31C153 21 139 25 125 41C111 57 97 85 83.2 82C69.3 79 55.7 45 41.8 37C28 29 14 47 7 56L0 65Z" fill="#2b3544"></path><path d="M0 103L7 99.5C14 96 28 89 41.8 100.5C55.7 112 69.3 142 83.2 147.5C97 153 111 134 125 121.5C139 109 153 103 167 105.5C181 108 195 119 208.8 119.5C222.7 120 236.3 110 250.2 110.5C264 111 278 122 292 124C306 126 320 119 334 121.5C348 124 362 136 375.8 136.5C389.7 137 403.3 126 417.2 128.5C431 131 445 147 459 142C473 137 487 111 501 109.5C515 108 529 131 542.8 149.5C556.7 168 570.3 182 584.2 181C598 180 612 164 626 153.5C640 143 654 138 668 138.5C682 139 696 145 709.8 147C723.7 149 737.3 147 751.2 137C765 127 779 109 793 113C807 117 821 143 835 157.5C849 172 863 175 876.8 172.5C890.7 170 904.3 162 918.2 153.5C932 145 946 136 953 131.5L960 127L960 14L953 31.5C946 49 932 84 918.2 100.5C904.3 117 890.7 115 876.8 121C863 127 849 141 835 133C821 125 807 95 793 83C779 71 765 77 751.2 75.5C737.3 74 723.7 65 709.8 61.5C696 58 682 60 668 62.5C654 65 640 68 626 78.5C612 89 598 107 584.2 108.5C570.3 110 556.7 95 542.8 87.5C529 80 515 80 501 85.5C487 91 473 102 459 90.5C445 79 431 45 417.2 46C403.3 47 389.7 83 375.8 94.5C362 106 348 93 334 81.5C320 70 306 60 292 57C278 54 264 58 250.2 66C236.3 74 222.7 86 208.8 81C195 76 181 54 167 46.5C153 39 139 46 125 61C111 76 97 99 83.2 93C69.3 87 55.7 52 41.8 43C28 34 14 51 7 59.5L0 68Z" fill="#283c55"></path><path d="M0 103L7 101.5C14 100 28 97 41.8 112.5C55.7 128 69.3 162 83.2 166.5C97 171 111 146 125 132.5C139 119 153 117 167 119C181 121 195 127 208.8 126.5C222.7 126 236.3 119 250.2 120.5C264 122 278 132 292 135.5C306 139 320 136 334 141C348 146 362 159 375.8 160.5C389.7 162 403.3 152 417.2 156C431 160 445 178 459 169.5C473 161 487 126 501 123C515 120 529 149 542.8 166.5C556.7 184 570.3 190 584.2 188C598 186 612 176 626 170.5C640 165 654 164 668 165.5C682 167 696 171 709.8 169C723.7 167 737.3 159 751.2 149.5C765 140 779 129 793 133.5C807 138 821 158 835 172C849 186 863 194 876.8 195C890.7 196 904.3 190 918.2 178.5C932 167 946 150 953 141.5L960 133L960 125L953 129.5C946 134 932 143 918.2 151.5C904.3 160 890.7 168 876.8 170.5C863 173 849 170 835 155.5C821 141 807 115 793 111C779 107 765 125 751.2 135C737.3 145 723.7 147 709.8 145C696 143 682 137 668 136.5C654 136 640 141 626 151.5C612 162 598 178 584.2 179C570.3 180 556.7 166 542.8 147.5C529 129 515 106 501 107.5C487 109 473 135 459 140C445 145 431 129 417.2 126.5C403.3 124 389.7 135 375.8 134.5C362 134 348 122 334 119.5C320 117 306 124 292 122C278 120 264 109 250.2 108.5C236.3 108 222.7 118 208.8 117.5C195 117 181 106 167 103.5C153 101 139 107 125 119.5C111 132 97 151 83.2 145.5C69.3 140 55.7 110 41.8 98.5C28 87 14 94 7 97.5L0 101Z" fill="#244266"></path><path d="M0 109L7 113.5C14 118 28 127 41.8 143C55.7 159 69.3 182 83.2 186.5C97 191 111 177 125 165C139 153 153 143 167 145C181 147 195 161 208.8 165.5C222.7 170 236.3 165 250.2 159.5C264 154 278 148 292 147C306 146 320 150 334 160C348 170 362 186 375.8 192.5C389.7 199 403.3 196 417.2 200C431 204 445 215 459 204C473 193 487 160 501 156C515 152 529 177 542.8 190.5C556.7 204 570.3 206 584.2 202C598 198 612 188 626 187C640 186 654 194 668 196C682 198 696 194 709.8 186.5C723.7 179 737.3 168 751.2 164C765 160 779 163 793 171.5C807 180 821 194 835 200.5C849 207 863 206 876.8 206.5C890.7 207 904.3 209 918.2 200.5C932 192 946 173 953 163.5L960 154L960 131L953 139.5C946 148 932 165 918.2 176.5C904.3 188 890.7 194 876.8 193C863 192 849 184 835 170C821 156 807 136 793 131.5C779 127 765 138 751.2 147.5C737.3 157 723.7 165 709.8 167C696 169 682 165 668 163.5C654 162 640 163 626 168.5C612 174 598 184 584.2 186C570.3 188 556.7 182 542.8 164.5C529 147 515 118 501 121C487 124 473 159 459 167.5C445 176 431 158 417.2 154C403.3 150 389.7 160 375.8 158.5C362 157 348 144 334 139C320 134 306 137 292 133.5C278 130 264 120 250.2 118.5C236.3 117 222.7 124 208.8 124.5C195 125 181 119 167 117C153 115 139 117 125 130.5C111 144 97 169 83.2 164.5C69.3 160 55.7 126 41.8 110.5C28 95 14 98 7 99.5L0 101Z" fill="#204878"></path><path d="M0 154L7 154C14 154 28 154 41.8 162.5C55.7 171 69.3 188 83.2 192.5C97 197 111 189 125 183.5C139 178 153 175 167 176.5C181 178 195 184 208.8 188C222.7 192 236.3 194 250.2 191C264 188 278 180 292 180.5C306 181 320 190 334 198C348 206 362 213 375.8 214.5C389.7 216 403.3 212 417.2 213.5C431 215 445 222 459 214C473 206 487 183 501 185C515 187 529 214 542.8 227C556.7 240 570.3 239 584.2 231C598 223 612 208 626 207.5C640 207 654 221 668 221.5C682 222 696 209 709.8 198C723.7 187 737.3 178 751.2 180C765 182 779 195 793 206.5C807 218 821 228 835 227.5C849 227 863 216 876.8 216.5C890.7 217 904.3 229 918.2 228.5C932 228 946 215 953 208.5L960 202L960 152L953 161.5C946 171 932 190 918.2 198.5C904.3 207 890.7 205 876.8 204.5C863 204 849 205 835 198.5C821 192 807 178 793 169.5C779 161 765 158 751.2 162C737.3 166 723.7 177 709.8 184.5C696 192 682 196 668 194C654 192 640 184 626 185C612 186 598 196 584.2 200C570.3 204 556.7 202 542.8 188.5C529 175 515 150 501 154C487 158 473 191 459 202C445 213 431 202 417.2 198C403.3 194 389.7 197 375.8 190.5C362 184 348 168 334 158C320 148 306 144 292 145C278 146 264 152 250.2 157.5C236.3 163 222.7 168 208.8 163.5C195 159 181 145 167 143C153 141 139 151 125 163C111 175 97 189 83.2 184.5C69.3 180 55.7 157 41.8 141C28 125 14 116 7 111.5L0 107Z" fill="#1c4d8a"></path><path d="M0 160L7 162.5C14 165 28 170 41.8 181.5C55.7 193 69.3 211 83.2 215.5C97 220 111 211 125 205C139 199 153 196 167 195C181 194 195 195 208.8 200.5C222.7 206 236.3 216 250.2 217.5C264 219 278 212 292 210C306 208 320 211 334 218C348 225 362 236 375.8 239C389.7 242 403.3 237 417.2 236.5C431 236 445 240 459 233C473 226 487 208 501 207.5C515 207 529 224 542.8 233.5C556.7 243 570.3 245 584.2 240.5C598 236 612 225 626 225C640 225 654 236 668 237C682 238 696 229 709.8 219C723.7 209 737.3 198 751.2 200C765 202 779 217 793 226C807 235 821 238 835 234.5C849 231 863 221 876.8 224.5C890.7 228 904.3 245 918.2 245C932 245 946 228 953 219.5L960 211L960 200L953 206.5C946 213 932 226 918.2 226.5C904.3 227 890.7 215 876.8 214.5C863 214 849 225 835 225.5C821 226 807 216 793 204.5C779 193 765 180 751.2 178C737.3 176 723.7 185 709.8 196C696 207 682 220 668 219.5C654 219 640 205 626 205.5C612 206 598 221 584.2 229C570.3 237 556.7 238 542.8 225C529 212 515 185 501 183C487 181 473 204 459 212C445 220 431 213 417.2 211.5C403.3 210 389.7 214 375.8 212.5C362 211 348 204 334 196C320 188 306 179 292 178.5C278 178 264 186 250.2 189C236.3 192 222.7 190 208.8 186C195 182 181 176 167 174.5C153 173 139 176 125 181.5C111 187 97 195 83.2 190.5C69.3 186 55.7 169 41.8 160.5C28 152 14 152 7 152L0 152Z" fill="#1b539c"></path><path d="M0 229L7 227.5C14 226 28 223 41.8 223C55.7 223 69.3 226 83.2 228C97 230 111 231 125 231.5C139 232 153 232 167 234.5C181 237 195 242 208.8 244C222.7 246 236.3 245 250.2 243.5C264 242 278 240 292 244C306 248 320 258 334 263C348 268 362 268 375.8 266C389.7 264 403.3 260 417.2 262.5C431 265 445 274 459 269.5C473 265 487 247 501 240C515 233 529 237 542.8 247C556.7 257 570.3 273 584.2 273C598 273 612 257 626 252C640 247 654 253 668 254.5C682 256 696 253 709.8 247C723.7 241 737.3 232 751.2 232.5C765 233 779 243 793 250.5C807 258 821 263 835 260C849 257 863 246 876.8 245C890.7 244 904.3 253 918.2 253.5C932 254 946 246 953 242L960 238L960 209L953 217.5C946 226 932 243 918.2 243C904.3 243 890.7 226 876.8 222.5C863 219 849 229 835 232.5C821 236 807 233 793 224C779 215 765 200 751.2 198C737.3 196 723.7 207 709.8 217C696 227 682 236 668 235C654 234 640 223 626 223C612 223 598 234 584.2 238.5C570.3 243 556.7 241 542.8 231.5C529 222 515 205 501 205.5C487 206 473 224 459 231C445 238 431 234 417.2 234.5C403.3 235 389.7 240 375.8 237C362 234 348 223 334 216C320 209 306 206 292 208C278 210 264 217 250.2 215.5C236.3 214 222.7 204 208.8 198.5C195 193 181 192 167 193C153 194 139 197 125 203C111 209 97 218 83.2 213.5C69.3 209 55.7 191 41.8 179.5C28 168 14 163 7 160.5L0 158Z" fill="#1e58ae"></path><path d="M0 256L7 254C14 252 28 248 41.8 246C55.7 244 69.3 244 83.2 245C97 246 111 248 125 249.5C139 251 153 252 167 254C181 256 195 259 208.8 260.5C222.7 262 236.3 262 250.2 262.5C264 263 278 264 292 269.5C306 275 320 285 334 286.5C348 288 362 281 375.8 277C389.7 273 403.3 272 417.2 274C431 276 445 281 459 276C473 271 487 256 501 249.5C515 243 529 245 542.8 253C556.7 261 570.3 275 584.2 274.5C598 274 612 259 626 254C640 249 654 254 668 255.5C682 257 696 255 709.8 250C723.7 245 737.3 237 751.2 237.5C765 238 779 247 793 254.5C807 262 821 268 835 268.5C849 269 863 264 876.8 263C890.7 262 904.3 265 918.2 264.5C932 264 946 260 953 258L960 256L960 236L953 240C946 244 932 252 918.2 251.5C904.3 251 890.7 242 876.8 243C863 244 849 255 835 258C821 261 807 256 793 248.5C779 241 765 231 751.2 230.5C737.3 230 723.7 239 709.8 245C696 251 682 254 668 252.5C654 251 640 245 626 250C612 255 598 271 584.2 271C570.3 271 556.7 255 542.8 245C529 235 515 231 501 238C487 245 473 263 459 267.5C445 272 431 263 417.2 260.5C403.3 258 389.7 262 375.8 264C362 266 348 266 334 261C320 256 306 246 292 242C278 238 264 240 250.2 241.5C236.3 243 222.7 244 208.8 242C195 240 181 235 167 232.5C153 230 139 230 125 229.5C111 229 97 228 83.2 226C69.3 224 55.7 221 41.8 221C28 221 14 224 7 225.5L0 227Z" fill="#285cc0"></path><path d="M0 289L7 286C14 283 28 277 41.8 273.5C55.7 270 69.3 269 83.2 271.5C97 274 111 280 125 279C139 278 153 270 167 267.5C181 265 195 268 208.8 268.5C222.7 269 236.3 267 250.2 270.5C264 274 278 283 292 288C306 293 320 294 334 293.5C348 293 362 291 375.8 289.5C389.7 288 403.3 287 417.2 288.5C431 290 445 294 459 291.5C473 289 487 280 501 275.5C515 271 529 271 542.8 274C556.7 277 570.3 283 584.2 284.5C598 286 612 283 626 282.5C640 282 654 284 668 284C682 284 696 282 709.8 278C723.7 274 737.3 268 751.2 269.5C765 271 779 280 793 282C807 284 821 279 835 274.5C849 270 863 266 876.8 265.5C890.7 265 904.3 268 918.2 270C932 272 946 273 953 273.5L960 274L960 254L953 256C946 258 932 262 918.2 262.5C904.3 263 890.7 260 876.8 261C863 262 849 267 835 266.5C821 266 807 260 793 252.5C779 245 765 236 751.2 235.5C737.3 235 723.7 243 709.8 248C696 253 682 255 668 253.5C654 252 640 247 626 252C612 257 598 272 584.2 272.5C570.3 273 556.7 259 542.8 251C529 243 515 241 501 247.5C487 254 473 269 459 274C445 279 431 274 417.2 272C403.3 270 389.7 271 375.8 275C362 279 348 286 334 284.5C320 283 306 273 292 267.5C278 262 264 261 250.2 260.5C236.3 260 222.7 260 208.8 258.5C195 257 181 254 167 252C153 250 139 249 125 247.5C111 246 97 244 83.2 243C69.3 242 55.7 242 41.8 244C28 246 14 250 7 252L0 254Z" fill="#3560d1"></path><path d="M0 292L7 289.5C14 287 28 282 41.8 282C55.7 282 69.3 287 83.2 289.5C97 292 111 292 125 289.5C139 287 153 282 167 281C181 280 195 283 208.8 283.5C222.7 284 236.3 282 250.2 284C264 286 278 292 292 295.5C306 299 320 300 334 298.5C348 297 362 293 375.8 290.5C389.7 288 403.3 287 417.2 289C431 291 445 296 459 297.5C473 299 487 297 501 294C515 291 529 287 542.8 288C556.7 289 570.3 295 584.2 297C598 299 612 297 626 297C640 297 654 299 668 298.5C682 298 696 295 709.8 292.5C723.7 290 737.3 288 751.2 289C765 290 779 294 793 293C807 292 821 286 835 282.5C849 279 863 278 876.8 277.5C890.7 277 904.3 277 918.2 277.5C932 278 946 279 953 279.5L960 280L960 272L953 271.5C946 271 932 270 918.2 268C904.3 266 890.7 263 876.8 263.5C863 264 849 268 835 272.5C821 277 807 282 793 280C779 278 765 269 751.2 267.5C737.3 266 723.7 272 709.8 276C696 280 682 282 668 282C654 282 640 280 626 280.5C612 281 598 284 584.2 282.5C570.3 281 556.7 275 542.8 272C529 269 515 269 501 273.5C487 278 473 287 459 289.5C445 292 431 288 417.2 286.5C403.3 285 389.7 286 375.8 287.5C362 289 348 291 334 291.5C320 292 306 291 292 286C278 281 264 272 250.2 268.5C236.3 265 222.7 267 208.8 266.5C195 266 181 263 167 265.5C153 268 139 276 125 277C111 278 97 272 83.2 269.5C69.3 267 55.7 268 41.8 271.5C28 275 14 281 7 284L0 287Z" fill="#4563e2"></path><path d="M0 301L7 301C14 301 28 301 41.8 301C55.7 301 69.3 301 83.2 301C97 301 111 301 125 301C139 301 153 301 167 301C181 301 195 301 208.8 301C222.7 301 236.3 301 250.2 301C264 301 278 301 292 301C306 301 320 301 334 301C348 301 362 301 375.8 301C389.7 301 403.3 301 417.2 301C431 301 445 301 459 301C473 301 487 301 501 301C515 301 529 301 542.8 301C556.7 301 570.3 301 584.2 301C598 301 612 301 626 301C640 301 654 301 668 301C682 301 696 301 709.8 301C723.7 301 737.3 301 751.2 301C765 301 779 301 793 301C807 301 821 301 835 301C849 301 863 301 876.8 301C890.7 301 904.3 301 918.2 301C932 301 946 301 953 301L960 301L960 278L953 277.5C946 277 932 276 918.2 275.5C904.3 275 890.7 275 876.8 275.5C863 276 849 277 835 280.5C821 284 807 290 793 291C779 292 765 288 751.2 287C737.3 286 723.7 288 709.8 290.5C696 293 682 296 668 296.5C654 297 640 295 626 295C612 295 598 297 584.2 295C570.3 293 556.7 287 542.8 286C529 285 515 289 501 292C487 295 473 297 459 295.5C445 294 431 289 417.2 287C403.3 285 389.7 286 375.8 288.5C362 291 348 295 334 296.5C320 298 306 297 292 293.5C278 290 264 284 250.2 282C236.3 280 222.7 282 208.8 281.5C195 281 181 278 167 279C153 280 139 285 125 287.5C111 290 97 290 83.2 287.5C69.3 285 55.7 280 41.8 280C28 280 14 285 7 287.5L0 290Z" fill="#5865f2"></path></svg>